<svg width="200" height="200" viewBox="0 0 200 200" xmlns="http://www.w3.org/2000/svg">
  <defs>
    <!-- Enhanced gradients for realistic 3D blocks -->
    <linearGradient id="rustGrad" x1="0%" y1="0%" x2="100%" y2="100%">
      <stop offset="0%" style="stop-color:#FF6B35"/>
      <stop offset="50%" style="stop-color:#CE422B"/>
      <stop offset="100%" style="stop-color:#8B2914"/>
    </linearGradient>
    <linearGradient id="goGrad" x1="0%" y1="0%" x2="100%" y2="100%">
      <stop offset="0%" style="stop-color:#29C5F5"/>
      <stop offset="50%" style="stop-color:#00ADD8"/>
      <stop offset="100%" style="stop-color:#007D9C"/>
    </linearGradient>
    <linearGradient id="jsGrad" x1="0%" y1="0%" x2="100%" y2="100%">
      <stop offset="0%" style="stop-color:#FFF34D"/>
      <stop offset="50%" style="stop-color:#F7DF1E"/>
      <stop offset="100%" style="stop-color:#D4BC00"/>
    </linearGradient>
    <linearGradient id="cppGrad" x1="0%" y1="0%" x2="100%" y2="100%">
      <stop offset="0%" style="stop-color:#3399DD"/>
      <stop offset="50%" style="stop-color:#00599C"/>
      <stop offset="100%" style="stop-color:#004482"/>
    </linearGradient>
    <linearGradient id="pythonGrad" x1="0%" y1="0%" x2="100%" y2="100%">
      <stop offset="0%" style="stop-color:#4B8BBE"/>
      <stop offset="50%" style="stop-color:#306998"/>
      <stop offset="100%" style="stop-color:#1E4A73"/>
    </linearGradient>
    <linearGradient id="zigGrad" x1="0%" y1="0%" x2="100%" y2="100%">
      <stop offset="0%" style="stop-color:#F7A41B"/>
      <stop offset="50%" style="stop-color:#EC8E00"/>
      <stop offset="100%" style="stop-color:#B8660A"/>
    </linearGradient>
    <linearGradient id="wasmGrad" x1="0%" y1="0%" x2="100%" y2="100%">
      <stop offset="0%" style="stop-color:#8B5CF6"/>
      <stop offset="50%" style="stop-color:#6B46C1"/>
      <stop offset="100%" style="stop-color:#553C9A"/>
    </linearGradient>
    <linearGradient id="assemblyGrad" x1="0%" y1="0%" x2="100%" y2="100%">
      <stop offset="0%" style="stop-color:#10B981"/>
      <stop offset="50%" style="stop-color:#059669"/>
      <stop offset="100%" style="stop-color:#047857"/>
    </linearGradient>
    <linearGradient id="kotlinGrad" x1="0%" y1="0%" x2="100%" y2="100%">
      <stop offset="0%" style="stop-color:#FF6F00"/>
      <stop offset="50%" style="stop-color:#E65100"/>
      <stop offset="100%" style="stop-color:#BF360C"/>
    </linearGradient>
    <linearGradient id="swiftGrad" x1="0%" y1="0%" x2="100%" y2="100%">
      <stop offset="0%" style="stop-color:#FF8C00"/>
      <stop offset="50%" style="stop-color:#E6683C"/>
      <stop offset="100%" style="stop-color:#CC4125"/>
    </linearGradient>
    <linearGradient id="csharpGrad" x1="0%" y1="0%" x2="100%" y2="100%">
      <stop offset="0%" style="stop-color:#9B4F96"/>
      <stop offset="50%" style="stop-color:#68217A"/>
      <stop offset="100%" style="stop-color:#512B5B"/>
    </linearGradient>
    <linearGradient id="javaGrad" x1="0%" y1="0%" x2="100%" y2="100%">
      <stop offset="0%" style="stop-color:#ED8B00"/>
      <stop offset="50%" style="stop-color:#E07C00"/>
      <stop offset="100%" style="stop-color:#C66D00"/>
    </linearGradient>
    <linearGradient id="dartGrad" x1="0%" y1="0%" x2="100%" y2="100%">
      <stop offset="0%" style="stop-color:#0175C2"/>
      <stop offset="50%" style="stop-color:#055A9C"/>
      <stop offset="100%" style="stop-color:#044577"/>
    </linearGradient>
    <linearGradient id="ocamlGrad" x1="0%" y1="0%" x2="100%" y2="100%">
      <stop offset="0%" style="stop-color:#EC6813"/>
      <stop offset="50%" style="stop-color:#D1530F"/>
      <stop offset="100%" style="stop-color:#B6440B"/>
    </linearGradient>
    <linearGradient id="haskellGrad" x1="0%" y1="0%" x2="100%" y2="100%">
      <stop offset="0%" style="stop-color:#5D4F85"/>
      <stop offset="50%" style="stop-color:#453A5E"/>
      <stop offset="100%" style="stop-color:#342A47"/>
    </linearGradient>
    <linearGradient id="elixirGrad" x1="0%" y1="0%" x2="100%" y2="100%">
      <stop offset="0%" style="stop-color:#4E2A8E"/>
      <stop offset="50%" style="stop-color:#3B1F6B"/>
      <stop offset="100%" style="stop-color:#2D1748"/>
    </linearGradient>

    <!-- Advanced shadow and lighting effects -->
    <filter id="bigShadow" x="-50%" y="-50%" width="300%" height="300%">
      <feGaussianBlur in="SourceAlpha" stdDeviation="4"/>
      <feOffset dx="4" dy="4" result="offset"/>
      <feFlood flood-color="rgba(0,0,0,0.5)"/>
      <feComposite in2="offset" operator="in"/>
      <feMerge>
        <feMergeNode/>
        <feMergeNode in="SourceGraphic"/>
      </feMerge>
    </filter>

    <filter id="blockShadow" x="-50%" y="-50%" width="300%" height="300%">
      <feGaussianBlur in="SourceAlpha" stdDeviation="2"/>
      <feOffset dx="2" dy="2" result="offset"/>
      <feFlood flood-color="rgba(0,0,0,0.4)"/>
      <feComposite in2="offset" operator="in"/>
      <feMerge>
        <feMergeNode/>
        <feMergeNode in="SourceGraphic"/>
      </feMerge>
    </filter>

    <filter id="smallShadow" x="-50%" y="-50%" width="300%" height="300%">
      <feGaussianBlur in="SourceAlpha" stdDeviation="1"/>
      <feOffset dx="1" dy="1" result="offset"/>
      <feFlood flood-color="rgba(0,0,0,0.3)"/>
      <feComposite in2="offset" operator="in"/>
      <feMerge>
        <feMergeNode/>
        <feMergeNode in="SourceGraphic"/>
      </feMerge>
    </filter>

    <filter id="glow" x="-50%" y="-50%" width="300%" height="300%">
      <feGaussianBlur in="SourceGraphic" stdDeviation="1.5"/>
      <feMerge>
        <feMergeNode/>
        <feMergeNode in="SourceGraphic"/>
      </feMerge>
    </filter>

    <filter id="strongGlow" x="-50%" y="-50%" width="300%" height="300%">
      <feGaussianBlur in="SourceGraphic" stdDeviation="2.5"/>
      <feMerge>
        <feMergeNode/>
        <feMergeNode in="SourceGraphic"/>
      </feMerge>
    </filter>

    <filter id="motionBlur" x="-50%" y="-50%" width="300%" height="300%">
      <feGaussianBlur in="SourceGraphic" stdDeviation="1 0" result="blur"/>
      <feMerge>
        <feMergeNode in="blur"/>
        <feMergeNode in="SourceGraphic"/>
      </feMerge>
    </filter>

    <filter id="fastMotion" x="-50%" y="-50%" width="300%" height="300%">
      <feGaussianBlur in="SourceGraphic" stdDeviation="2 0.5" result="blur"/>
      <feMerge>
        <feMergeNode in="blur"/>
        <feMergeNode in="SourceGraphic"/>
      </feMerge>
    </filter>
  </defs>

  <!-- Deep space background with multiple layers -->
  <circle cx="100" cy="100" r="99" fill="rgba(107, 70, 193, 0.08)"/>
  <circle cx="100" cy="100" r="85" fill="rgba(139, 92, 246, 0.06)"/>
  <circle cx="100" cy="100" r="70" fill="rgba(16, 185, 129, 0.04)"/>

  <!-- ===================== -->
  <!-- MASSIVE BLOCKS (XL) -->
  <!-- ===================== -->

  <!-- Giant Rust block (back-left, massive) -->
  <g transform="translate(10, 60) rotate(-20) scale(1.8)" filter="url(#bigShadow)">
    <rect x="0" y="0" width="30" height="30" fill="url(#rustGrad)" rx="2"/>
    <polygon points="0,0 6,-6 36,-6 30,0" fill="#FF6B35" opacity="0.9"/>
    <polygon points="30,0 36,-6 36,24 30,30" fill="#A73226" opacity="0.8"/>
    <circle cx="8" cy="8" r="3.5" fill="#FF8A65"/>
    <circle cx="22" cy="8" r="3.5" fill="#FF8A65"/>
    <circle cx="8" cy="22" r="3.5" fill="#FF8A65"/>
    <circle cx="22" cy="22" r="3.5" fill="#FF8A65"/>
  </g>

  <!-- Huge WASM block (center, dominant) -->
  <g transform="translate(75, 75) rotate(15) scale(2.2)" filter="url(#strongGlow)">
    <rect x="0" y="0" width="25" height="25" fill="url(#wasmGrad)" rx="1.5"/>
    <polygon points="0,0 5,-5 30,-5 25,0" fill="#8B5CF6" opacity="0.9"/>
    <polygon points="25,0 30,-5 30,20 25,25" fill="#553C9A" opacity="0.8"/>
    <circle cx="12.5" cy="12.5" r="5" fill="#A78BFA"/>
    <path d="M 7.5,12.5 L 12.5,7.5 L 17.5,12.5 L 12.5,17.5 Z" fill="#C4B5FD"/>
  </g>

  <!-- Massive Go block (right, impressive) -->
  <g transform="translate(150, 50) rotate(-30) scale(1.6)" filter="url(#bigShadow)">
    <rect x="0" y="0" width="28" height="28" fill="url(#goGrad)" rx="2"/>
    <polygon points="0,0 5.5,-5.5 33.5,-5.5 28,0" fill="#29C5F5" opacity="0.9"/>
    <polygon points="28,0 33.5,-5.5 33.5,22.5 28,28" fill="#0087A8" opacity="0.8"/>
    <circle cx="7" cy="7" r="3.2" fill="#5DD3F5"/>
    <circle cx="21" cy="7" r="3.2" fill="#5DD3F5"/>
    <circle cx="7" cy="21" r="3.2" fill="#5DD3F5"/>
    <circle cx="21" cy="21" r="3.2" fill="#5DD3F5"/>
  </g>

  <!-- Giant JavaScript block (bottom-right) -->
  <g transform="translate(130, 140) rotate(25) scale(1.7)" filter="url(#strongGlow)">
    <rect x="0" y="0" width="26" height="26" fill="url(#jsGrad)" rx="1.5"/>
    <polygon points="0,0 5,-5 31,-5 26,0" fill="#FFF34D" opacity="0.9"/>
    <polygon points="26,0 31,-5 31,21 26,26" fill="#E8D000" opacity="0.8"/>
    <circle cx="6.5" cy="6.5" r="3" fill="#FFF866"/>
    <circle cx="19.5" cy="6.5" r="3" fill="#FFF866"/>
    <circle cx="6.5" cy="19.5" r="3" fill="#FFF866"/>
    <circle cx="19.5" cy="19.5" r="3" fill="#FFF866"/>
  </g>

  <!-- ===================== -->
  <!-- LARGE BLOCKS (L) -->
  <!-- ===================== -->

  <!-- Large C++ block (top-left) -->
  <g transform="translate(20, 20) rotate(40) scale(1.4)" filter="url(#glow)">
    <rect x="0" y="0" width="22" height="22" fill="url(#cppGrad)" rx="1"/>
    <polygon points="0,0 4.5,-4.5 26.5,-4.5 22,0" fill="#3399DD" opacity="0.9"/>
    <polygon points="22,0 26.5,-4.5 26.5,17.5 22,22" fill="#005299" opacity="0.8"/>
    <circle cx="5.5" cy="5.5" r="2.5" fill="#66B3E6"/>
    <circle cx="16.5" cy="5.5" r="2.5" fill="#66B3E6"/>
    <circle cx="5.5" cy="16.5" r="2.5" fill="#66B3E6"/>
    <circle cx="16.5" cy="16.5" r="2.5" fill="#66B3E6"/>
  </g>

  <!-- Large Python block (top-right, flying) -->
  <g transform="translate(160, 10) rotate(-45) scale(1.3)" filter="url(#fastMotion)">
    <rect x="0" y="0" width="20" height="20" fill="url(#pythonGrad)" rx="1"/>
    <polygon points="0,0 4,-4 24,-4 20,0" fill="#4B8BBE" opacity="0.9"/>
    <polygon points="20,0 24,-4 24,16 20,20" fill="#1E4A73" opacity="0.8"/>
    <circle cx="5" cy="5" r="2.3" fill="#6FA8DC"/>
    <circle cx="15" cy="5" r="2.3" fill="#6FA8DC"/>
    <circle cx="5" cy="15" r="2.3" fill="#6FA8DC"/>
    <circle cx="15" cy="15" r="2.3" fill="#6FA8DC"/>
  </g>

  <!-- Large Kotlin block (bottom-left) -->
  <g transform="translate(5, 150) rotate(55) scale(1.25)" filter="url(#blockShadow)">
    <rect x="0" y="0" width="21" height="21" fill="url(#kotlinGrad)" rx="1"/>
    <polygon points="0,0 4,-4 25,-4 21,0" fill="#FF6F00" opacity="0.9"/>
    <polygon points="21,0 25,-4 25,17 21,21" fill="#BF360C" opacity="0.8"/>
    <circle cx="5.25" cy="5.25" r="2.4" fill="#FF9800"/>
    <circle cx="15.75" cy="5.25" r="2.4" fill="#FF9800"/>
    <circle cx="5.25" cy="15.75" r="2.4" fill="#FF9800"/>
    <circle cx="15.75" cy="15.75" r="2.4" fill="#FF9800"/>
  </g>

  <!-- ===================== -->
  <!-- MEDIUM BLOCKS (M) -->
  <!-- ===================== -->

  <!-- Medium Zig block -->
  <g transform="translate(60, 40) rotate(-25) scale(1.0)" filter="url(#glow)">
    <rect x="0" y="0" width="18" height="18" fill="url(#zigGrad)" rx="1"/>
    <polygon points="0,0 3.5,-3.5 21.5,-3.5 18,0" fill="#F7A41B" opacity="0.9"/>
    <polygon points="18,0 21.5,-3.5 21.5,14.5 18,18" fill="#B8660A" opacity="0.8"/>
    <circle cx="4.5" cy="4.5" r="2.1" fill="#FFB84D"/>
    <circle cx="13.5" cy="4.5" r="2.1" fill="#FFB84D"/>
    <circle cx="4.5" cy="13.5" r="2.1" fill="#FFB84D"/>
    <circle cx="13.5" cy="13.5" r="2.1" fill="#FFB84D"/>
  </g>

  <!-- Medium Swift block -->
  <g transform="translate(140, 90) rotate(35) scale(0.95)" filter="url(#motionBlur)">
    <rect x="0" y="0" width="17" height="17" fill="url(#swiftGrad)" rx="1"/>
    <polygon points="0,0 3.5,-3.5 20.5,-3.5 17,0" fill="#FF8C00" opacity="0.9"/>
    <polygon points="17,0 20.5,-3.5 20.5,13.5 17,17" fill="#CC4125" opacity="0.8"/>
    <circle cx="4.25" cy="4.25" r="2" fill="#FFA726"/>
    <circle cx="12.75" cy="4.25" r="2" fill="#FFA726"/>
    <circle cx="4.25" cy="12.75" r="2" fill="#FFA726"/>
    <circle cx="12.75" cy="12.75" r="2" fill="#FFA726"/>
  </g>

  <!-- Medium C# block -->
  <g transform="translate(30, 130) rotate(-50) scale(1.0)" filter="url(#blockShadow)">
    <rect x="0" y="0" width="16" height="16" fill="url(#csharpGrad)" rx="1"/>
    <polygon points="0,0 3,-3 19,-3 16,0" fill="#9B4F96" opacity="0.9"/>
    <polygon points="16,0 19,-3 19,13 16,16" fill="#512B5B" opacity="0.8"/>
    <circle cx="4" cy="4" r="1.8" fill="#B865B3"/>
    <circle cx="12" cy="4" r="1.8" fill="#B865B3"/>
    <circle cx="4" cy="12" r="1.8" fill="#B865B3"/>
    <circle cx="12" cy="12" r="1.8" fill="#B865B3"/>
  </g>

  <!-- Medium Java block -->
  <g transform="translate(110, 25) rotate(60) scale(0.9)" filter="url(#glow)">
    <rect x="0" y="0" width="16" height="16" fill="url(#javaGrad)" rx="1"/>
    <polygon points="0,0 3,-3 19,-3 16,0" fill="#ED8B00" opacity="0.9"/>
    <polygon points="16,0 19,-3 19,13 16,16" fill="#C66D00" opacity="0.8"/>
    <circle cx="4" cy="4" r="1.8" fill="#F19A1A"/>
    <circle cx="12" cy="4" r="1.8" fill="#F19A1A"/>
    <circle cx="4" cy="12" r="1.8" fill="#F19A1A"/>
    <circle cx="12" cy="12" r="1.8" fill="#F19A1A"/>
  </g>

  <!-- Medium AssemblyScript block -->
  <g transform="translate(170, 120) rotate(-15) scale(0.85)" filter="url(#motionBlur)">
    <rect x="0" y="0" width="15" height="15" fill="url(#assemblyGrad)" rx="1"/>
    <polygon points="0,0 3,-3 18,-3 15,0" fill="#10B981" opacity="0.9"/>
    <polygon points="15,0 18,-3 18,12 15,15" fill="#047857" opacity="0.8"/>
    <circle cx="3.75" cy="3.75" r="1.7" fill="#34D399"/>
    <circle cx="11.25" cy="3.75" r="1.7" fill="#34D399"/>
    <circle cx="3.75" cy="11.25" r="1.7" fill="#34D399"/>
    <circle cx="11.25" cy="11.25" r="1.7" fill="#34D399"/>
  </g>

  <!-- ===================== -->
  <!-- SMALL BLOCKS (S) -->
  <!-- ===================== -->

  <!-- Small Dart blocks cluster -->
  <g transform="translate(50, 170) rotate(30) scale(0.7)" filter="url(#smallShadow)">
    <rect x="0" y="0" width="12" height="12" fill="url(#dartGrad)" rx="1"/>
    <polygon points="0,0 2.5,-2.5 14.5,-2.5 12,0" fill="#0175C2" opacity="0.9"/>
    <polygon points="12,0 14.5,-2.5 14.5,9.5 12,12" fill="#044577" opacity="0.8"/>
    <circle cx="3" cy="3" r="1.4" fill="#3B8BC8"/>
    <circle cx="9" cy="3" r="1.4" fill="#3B8BC8"/>
    <circle cx="3" cy="9" r="1.4" fill="#3B8BC8"/>
    <circle cx="9" cy="9" r="1.4" fill="#3B8BC8"/>
  </g>

  <g transform="translate(70, 165) rotate(-40) scale(0.6)" filter="url(#smallShadow)">
    <rect x="0" y="0" width="11" height="11" fill="url(#ocamlGrad)" rx="1"/>
    <polygon points="0,0 2,-2 13,-2 11,0" fill="#EC6813" opacity="0.9"/>
    <polygon points="11,0 13,-2 13,9 11,11" fill="#B6440B" opacity="0.8"/>
    <circle cx="2.75" cy="2.75" r="1.3" fill="#F27F3D"/>
    <circle cx="8.25" cy="2.75" r="1.3" fill="#F27F3D"/>
    <circle cx="2.75" cy="8.25" r="1.3" fill="#F27F3D"/>
    <circle cx="8.25" cy="8.25" r="1.3" fill="#F27F3D"/>
  </g>

  <!-- Small Haskell blocks -->
  <g transform="translate(180, 30) rotate(70) scale(0.5)" filter="url(#motionBlur)">
    <rect x="0" y="0" width="10" height="10" fill="url(#haskellGrad)" rx="0.8"/>
    <polygon points="0,0 2,-2 12,-2 10,0" fill="#5D4F85" opacity="0.9"/>
    <polygon points="10,0 12,-2 12,8 10,10" fill="#342A47" opacity="0.8"/>
    <circle cx="2.5" cy="2.5" r="1.2" fill="#7A6B9D"/>
    <circle cx="7.5" cy="2.5" r="1.2" fill="#7A6B9D"/>
    <circle cx="2.5" cy="7.5" r="1.2" fill="#7A6B9D"/>
    <circle cx="7.5" cy="7.5" r="1.2" fill="#7A6B9D"/>
  </g>

  <!-- Small Elixir blocks -->
  <g transform="translate(190, 60) rotate(-60) scale(0.55)" filter="url(#smallShadow)">
    <rect x="0" y="0" width="10" height="10" fill="url(#elixirGrad)" rx="0.8"/>
    <polygon points="0,0 2,-2 12,-2 10,0" fill="#4E2A8E" opacity="0.9"/>
    <polygon points="10,0 12,-2 12,8 10,10" fill="#2D1748" opacity="0.8"/>
    <circle cx="2.5" cy="2.5" r="1.2" fill="#6B3FB8"/>
    <circle cx="7.5" cy="2.5" r="1.2" fill="#6B3FB8"/>
    <circle cx="2.5" cy="7.5" r="1.2" fill="#6B3FB8"/>
    <circle cx="7.5" cy="7.5" r="1.2" fill="#6B3FB8"/>
  </g>

  <!-- ===================== -->
  <!-- TINY BLOCKS (XS) - Background swarm -->
  <!-- ===================== -->

  <!-- Tiny distant blocks creating depth -->
  <g transform="translate(190, 100) rotate(20) scale(0.35)" filter="url(#smallShadow)">
    <rect x="0" y="0" width="8" height="8" fill="url(#rustGrad)" rx="0.5"/>
    <polygon points="0,0 1.5,-1.5 9.5,-1.5 8,0" fill="#FF6B35" opacity="0.9"/>
    <circle cx="4" cy="4" r="1" fill="#FF8A65"/>
  </g>

  <g transform="translate(15, 40) rotate(-80) scale(0.3)" filter="url(#smallShadow)">
    <rect x="0" y="0" width="7" height="7" fill="url(#goGrad)" rx="0.5"/>
    <polygon points="0,0 1.5,-1.5 8.5,-1.5 7,0" fill="#29C5F5" opacity="0.9"/>
    <circle cx="3.5" cy="3.5" r="0.8" fill="#5DD3F5"/>
  </g>

  <g transform="translate(185, 180) rotate(45) scale(0.4)" filter="url(#motionBlur)">
    <rect x="0" y="0" width="8" height="8" fill="url(#jsGrad)" rx="0.5"/>
    <polygon points="0,0 1.5,-1.5 9.5,-1.5 8,0" fill="#FFF34D" opacity="0.9"/>
    <circle cx="4" cy="4" r="1" fill="#FFF866"/>
  </g>

  <g transform="translate(5, 180) rotate(-30) scale(0.32)" filter="url(#smallShadow)">
    <rect x="0" y="0" width="7" height="7" fill="url(#cppGrad)" rx="0.5"/>
    <polygon points="0,0 1.5,-1.5 8.5,-1.5 7,0" fill="#3399DD" opacity="0.9"/>
    <circle cx="3.5" cy="3.5" r="0.8" fill="#66B3E6"/>
  </g>

  <g transform="translate(95, 10) rotate(85) scale(0.35)" filter="url(#motionBlur)">
    <rect x="0" y="0" width="8" height="8" fill="url(#pythonGrad)" rx="0.5"/>
    <polygon points="0,0 1.5,-1.5 9.5,-1.5 8,0" fill="#4B8BBE" opacity="0.9"/>
    <circle cx="4" cy="4" r="1" fill="#6FA8DC"/>
  </g>

  <g transform="translate(195, 140) rotate(-10) scale(0.3)" filter="url(#smallShadow)">
    <rect x="0" y="0" width="7" height="7" fill="url(#wasmGrad)" rx="0.5"/>
    <polygon points="0,0 1.5,-1.5 8.5,-1.5 7,0" fill="#8B5CF6" opacity="0.9"/>
    <circle cx="3.5" cy="3.5" r="0.8" fill="#A78BFA"/>
  </g>

  <!-- More tiny blocks for density -->
  <g transform="translate(25, 185) rotate(50) scale(0.28)" filter="url(#smallShadow)">
    <rect x="0" y="0" width="6" height="6" fill="url(#zigGrad)" rx="0.5"/>
    <circle cx="3" cy="3" r="0.7" fill="#FFB84D"/>
  </g>

  <g transform="translate(175, 15) rotate(-70) scale(0.33)" filter="url(#motionBlur)">
    <rect x="0" y="0" width="7" height="7" fill="url(#swiftGrad)" rx="0.5"/>
    <circle cx="3.5" cy="3.5" r="0.8" fill="#FFA726"/>
  </g>

  <g transform="translate(12, 12) rotate(15) scale(0.3)" filter="url(#smallShadow)">
    <rect x="0" y="0" width="7" height="7" fill="url(#assemblyGrad)" rx="0.5"/>
    <circle cx="3.5" cy="3.5" r="0.8" fill="#34D399"/>
  </g>

  <g transform="translate(188, 190) rotate(-45) scale(0.25)" filter="url(#smallShadow)">
    <rect x="0" y="0" width="6" height="6" fill="url(#kotlinGrad)" rx="0.5"/>
    <circle cx="3" cy="3" r="0.7" fill="#FF9800"/>
  </g>

  <!-- ===================== -->
  <!-- CONNECTION TRAILS AND ENERGY -->
  <!-- ===================== -->

  <!-- Major energy trails between large blocks -->
  <path d="M 40,80 Q 90,60 130,70" stroke="rgba(139, 92, 246, 0.4)" stroke-width="3" fill="none" opacity="0.7"/>
  <path d="M 90,110 Q 140,130 170,110" stroke="rgba(16, 185, 129, 0.4)" stroke-width="2.5" fill="none" opacity="0.6"/>
  <path d="M 50,50 Q 100,30 150,40" stroke="rgba(247, 223, 30, 0.4)" stroke-width="2" fill="none" opacity="0.5"/>
  <path d="M 30,140 Q 80,120 120,140" stroke="rgba(255, 107, 53, 0.4)" stroke-width="2" fill="none" opacity="0.5"/>
  <path d="M 160,80 Q 120,100 80,90" stroke="rgba(41, 197, 245, 0.3)" stroke-width="1.5" fill="none" opacity="0.4"/>

  <!-- Minor connection lines -->
  <path d="M 70,170 Q 100,150 130,170" stroke="rgba(139, 92, 246, 0.2)" stroke-width="1" fill="none" opacity="0.3"/>
  <path d="M 20,30 Q 60,20 100,30" stroke="rgba(16, 185, 129, 0.2)" stroke-width="1" fill="none" opacity="0.3"/>
  <path d="M 170,160 Q 140,180 100,170" stroke="rgba(247, 223, 30, 0.2)" stroke-width="1" fill="none" opacity="0.3"/>

  <!-- ===================== -->
  <!-- COSMIC PARTICLES AND ATMOSPHERE -->
  <!-- ===================== -->

  <!-- Larger glowing particles -->
  <circle cx="185" cy="25" r="1.5" fill="rgba(139, 92, 246, 0.6)" filter="url(#glow)"/>
  <circle cx="15" cy="195" r="1.2" fill="rgba(16, 185, 129, 0.6)" filter="url(#glow)"/>
  <circle cx="195" cy="170" r="1" fill="rgba(247, 223, 30, 0.6)" filter="url(#glow)"/>
  <circle cx="5" cy="120" r="1.3" fill="rgba(0, 173, 216, 0.6)" filter="url(#glow)"/>
  <circle cx="190" cy="90" r="0.8" fill="rgba(255, 107, 53, 0.6)" filter="url(#glow)"/>

  <!-- Smaller ambient particles -->
  <circle cx="180" cy="50" r="0.8" fill="rgba(139, 92, 246, 0.4)"/>
  <circle cx="35" cy="195" r="0.6" fill="rgba(16, 185, 129, 0.4)"/>
  <circle cx="195" cy="185" r="0.7" fill="rgba(247, 223, 30, 0.4)"/>
  <circle cx="8" cy="85" r="0.5" fill="rgba(0, 173, 216, 0.4)"/>
  <circle cx="185" cy="110" r="0.6" fill="rgba(255, 107, 53, 0.4)"/>
  <circle cx="45" cy="8" r="0.7" fill="rgba(75, 139, 190, 0.4)"/>
  <circle cx="155" cy="195" r="0.5" fill="rgba(236, 104, 19, 0.4)"/>
  <circle cx="195" cy="35" r="0.6" fill="rgba(93, 79, 133, 0.4)"/>
  <circle cx="25" cy="170" r="0.5" fill="rgba(78, 42, 142, 0.4)"/>
  <circle cx="165" cy="5" r="0.7" fill="rgba(255, 140, 0, 0.4)"/>
</svg>
